<svg xmlns="http://www.w3.org/2000/svg" width="222" height="46" viewBox="0 0 222 46"><g fill="#312f2f"><path d="M63.697 10.42h1.917v8.41c1.157-1.127 2.892-2.53 5.266-2.53 3.074 0 5.63 2.347 5.63 8.35 0 5.97-2.556 8.315-5.63 8.315-2.374 0-4.11-1.34-5.266-2.498v2.164h-1.917V10.42zm1.918 10.268v7.92c1.187 1.462 3.013 2.712 5.022 2.712 2.587 0 3.926-2.56 3.926-6.672 0-4.144-1.34-6.703-3.926-6.703-2.04 0-3.835 1.28-5.022 2.743zM220.634 28.224c0 2.985-2.282 4.783-6.088 4.783-2.92 0-6.057-1.097-7.73-2.07l1.704-3.078c1.553.82 4.262 1.795 5.844 1.795 1.157 0 1.826-.518 1.826-1.218 0-1.34-2.008-1.707-3.956-2.255-2.374-.67-5.114-1.858-5.114-5.088 0-2.803 2.07-4.752 5.875-4.752 2.617 0 5.387.944 6.97 1.736l-1.704 2.863c-1.37-.61-3.56-1.28-4.99-1.28-1.096 0-1.766.49-1.766 1.22 0 1.34 1.918 1.584 3.836 2.133 2.645.73 5.294 2.04 5.294 5.21"/><path d="M89.307 30.48c-1.156 1.126-3.074 2.527-5.57 2.527-2.312 0-4.9-1.25-4.9-5.058 0-3.72 2.435-5.27 5.053-5.27 1.704 0 4.2.67 5.417.912v-2.01c0-2.407-.7-3.656-3.195-3.656-1.674 0-3.53.67-5.54 1.432l-.73-1.494c2.404-.944 4.565-1.523 6.452-1.523 3.044 0 4.93 1.4 4.93 5.058V32.67H89.31v-2.19zm0-1.677v-3.93c-1.065-.214-3.074-.762-4.687-.762-2.922 0-3.835 1.8-3.835 3.78 0 2.467 1.43 3.44 3.317 3.44 2.192 0 3.805-1.125 5.205-2.526zM96.368 20.223c.182-.487 1.673-3.93 5.63-3.625v1.828c-5.082 0-5.63 5.027-5.63 5.027v9.323H94.45V16.78h1.918v3.443"/><path d="M104.47 25.207c.184 3.778 1.98 6.215 4.445 6.215 2.13 0 4.292-1.4 5.57-2.224l.974 1.31c-1.4.914-3.807 2.5-6.607 2.5-3.44 0-6.36-2.834-6.36-8.35 0-5.422 2.89-8.316 6.756-8.316 4.017 0 6.116 2.925 6.116 6.885 0 1.127-.182 1.98-.182 1.98H104.47zm.03-1.37h8.95c.062-4.174-1.583-5.94-4.23-5.94-2.77 0-4.505 2.345-4.72 5.94zM122.726 18.75c1.065-1.037 2.922-2.408 4.99-2.408 2.376 0 3.563 1.25 4.08 2.742.943-1.036 3.044-2.742 5.356-2.742 3.136 0 4.414 2.04 4.414 5.027v11.3h-4.383V22.375c0-1.462-.274-2.62-1.705-2.62-1.248 0-2.557 1.127-3.348 2.102v10.815h-4.383V22.375c0-1.462-.274-2.62-1.705-2.62-1.217 0-2.526 1.097-3.317 2.072v10.846h-4.384V16.677h4.386v2.072"/><path d="M148.13 25.635c.212 2.65 1.216 4.112 3.073 4.112 1.643 0 3.652-.976 5.447-1.95l1.613 2.742c-1.126.7-4.078 2.466-7.487 2.466-3.956 0-7.122-2.62-7.122-8.286 0-5.33 2.8-8.377 7.488-8.377 4.717 0 7.06 2.986 7.06 7.068 0 1.28-.243 2.227-.243 2.227h-9.83zm.03-2.377h5.75c0-2.528-.942-3.778-2.768-3.778-1.796 0-2.74 1.37-2.983 3.778zM159.74 16.71h2.01v-4.022l4.383-.61v4.63h4.018v3.23h-4.016v7.768c0 1.34.64 1.523 1.217 1.523.73 0 1.888-.55 2.253-.73l1.522 3.26c-.974.455-2.86 1.277-4.9 1.277-2.982 0-4.474-1.645-4.474-5.393v-7.708h-2.01V16.71M177.607 20.13c.305-.822 1.766-3.808 5.51-3.534v4.113c-4.992 0-5.51 5.117-5.51 5.117v6.945h-4.383V16.78h4.383v3.35"/><path d="M185.29 10.658h4.595v3.808h-4.596v-3.808zm.12 6.123h4.383v15.996h-4.383V16.78zM203.654 21.52c-1.005-.486-2.68-1.43-4.05-1.43-1.854 0-3.013 1.796-3.013 4.57s1.16 4.6 3.016 4.6c1.37 0 3.044-.945 4.05-1.432l1.733 3.23c-1.34.7-3.897 1.95-6.454 1.95-3.56 0-6.787-2.62-6.787-8.35s3.226-8.316 6.757-8.316c2.587 0 5.144 1.28 6.482 1.95l-1.735 3.23"/></g><path fill="#296BAB" d="M50.294 20.03l-2.674-4.635-9.17 7.29L26 19.5l-12.86 9.355-12.6-6.023c.035.83.26 1.56.688 2.302l10.024 17.378c.46.8 1.12 1.412 1.89 1.863.784.46 1.5.698 2.587.842h20.09c.94 0 1.844-.278 2.63-.74.77-.45 1.36-1.05 1.82-1.85L50.293 25.25c.932-1.615.932-3.604 0-5.22zM.54 22.832c.035.83.26 1.56.688 2.302l10.024 17.378c.46.8 1.12 1.412 1.89 1.863v-15.52L.54 22.832z"/><path fill="#0077B8" d="M13.14 44.375c.786.46 1.503.698 2.59.842H26V19.5l-12.86 9.355v15.52z"/><path fill="#1E8BC7" d="M26 19.5v25.717h9.82c.94 0 1.845-.278 2.63-.74V22.685L26 19.5z"/><path fill="#4C9DD3" d="M47.62 15.395l-9.17 7.29v21.793c.77-.45 1.36-1.05 1.82-1.85L50.295 25.25c.932-1.615.932-3.604 0-5.22l-2.674-4.635"/><path fill="#BEDBE8" d="M12.672 24.25l12.438-8.938 12.406 2.97 8.144-6.41-5.334-9.263C39.394.993 37.672 0 35.81 0H15.762c-1.863 0-3.584.995-4.515 2.61l-9.48 16.473 10.905 5.167z"/><path fill="#fff" d="M38.45 22.684l9.17-7.29-2.11-3.788-8.072 6.388L25 15l-12.332 8.857L1.965 18.74l-.733 1.27c-.502.872-.73 1.852-.69 2.822l12.6 6.023L26 19.5"/></svg>